<svg id="组件_54_1" data-name="组件 54 – 1" xmlns="http://www.w3.org/2000/svg" width="83" height="83" viewBox="0 0 83 83">
  <circle id="Oval_Copy_2" data-name="Oval Copy 2" cx="41.5" cy="41.5" r="41.5" fill="#f1f2f6"/>
  <g id="cc-mastercard" transform="translate(17.166 21.98)">
    <path id="Shape" d="M46.384,39.355H4.217A4.222,4.222,0,0,1,0,35.138V4.217A4.222,4.222,0,0,1,4.217,0H46.384A4.221,4.221,0,0,1,50.6,4.217V35.138A4.221,4.221,0,0,1,46.384,39.355ZM31.7,31.448a1.706,1.706,0,1,0,.018,3.411,1.77,1.77,0,0,0,1.138-.389l-.334-.571a1.431,1.431,0,0,1-.82.276.966.966,0,0,1-1-1.032.953.953,0,0,1,.984-1.029,1.435,1.435,0,0,1,.835.291l.334-.571A1.878,1.878,0,0,0,31.7,31.448Zm9.651,0a1.612,1.612,0,0,0-1.094.436,1.675,1.675,0,0,0-.513,1.264,1.628,1.628,0,0,0,1.624,1.7,1.185,1.185,0,0,0,1-.48v.4h.694V30.228h-.694v1.7A1.25,1.25,0,0,0,41.35,31.444Zm-6.52,0a1.625,1.625,0,0,0-1.1.44,1.671,1.671,0,0,0-.516,1.258,1.629,1.629,0,0,0,1.627,1.7,1.186,1.186,0,0,0,1-.48v.4h.721V31.536h-.721v.387A1.245,1.245,0,0,0,34.83,31.445Zm-14.072.091v.642h.668v1.466c0,1.043.682,1.2,1.088,1.2a1.749,1.749,0,0,0,.9-.241l-.193-.6-.006.006a1.448,1.448,0,0,1-.593.165.465.465,0,0,1-.331-.114.557.557,0,0,1-.141-.419V32.187H23.3v-.651H22.146v-.984h-.72v.984Zm-3.013,2.354-.308.554a2.548,2.548,0,0,0,1.4.4,1.93,1.93,0,0,0,1.022-.257.918.918,0,0,0,.445-.8c0-.783-.713-.891-1.285-.978-.39-.058-.726-.108-.726-.358,0-.228.22-.358.6-.358a2.242,2.242,0,0,1,1.02.263l.29-.572a2.5,2.5,0,0,0-1.268-.337c-.67,0-1.386.278-1.386,1.058,0,.747.712.864,1.284.958l.01,0c.386.064.72.119.72.358,0,.256-.257.408-.688.408a2.193,2.193,0,0,1-1.131-.339Zm7.722-2.45a1.578,1.578,0,0,0-1.6,1.7,1.609,1.609,0,0,0,1.691,1.7,1.975,1.975,0,0,0,1.278-.457l-.334-.527a1.549,1.549,0,0,1-.958.363.941.941,0,0,1-.965-.792H27a2.2,2.2,0,0,0-.507-1.6A1.387,1.387,0,0,0,25.467,31.44Zm-10.445.009a1.7,1.7,0,0,0,0,3.39,1.213,1.213,0,0,0,1.028-.474v.4h.694V31.536H16.05v.387A1.264,1.264,0,0,0,15.022,31.45Zm28.954,2.723a.117.117,0,0,0-.027,0l-.014,0a.254.254,0,0,1-.082.017.458.458,0,0,0-.1.07.139.139,0,0,0-.07.1.272.272,0,0,0-.026.14.257.257,0,0,0,.026.123.139.139,0,0,0,.07.1.29.29,0,0,0,.1.07.233.233,0,0,0,.123.027.255.255,0,0,0,.14-.027.183.183,0,0,1,.032-.024l.011-.007a.223.223,0,0,0,.055-.039.193.193,0,0,0,.035-.047.268.268,0,0,1,.035-.05.245.245,0,0,0,.027-.123.259.259,0,0,0-.027-.14.232.232,0,0,1-.029-.039l0-.008a.248.248,0,0,0-.036-.05.194.194,0,0,0-.033-.026l-.015-.011a.306.306,0,0,1-.049-.033.282.282,0,0,1-.068-.012A.271.271,0,0,0,43.976,34.173Zm-6.483-2.637V34.76h.694V32.942c0-.754.486-.835.7-.835a1.007,1.007,0,0,1,.43.1l.211-.668a1.176,1.176,0,0,0-.472-.094.948.948,0,0,0-.864.481v-.387Zm-9.777,0V34.76h.721V32.942c0-.73.427-.839.682-.839a1.126,1.126,0,0,1,.442.1l.211-.668a1.215,1.215,0,0,0-.478-.1.957.957,0,0,0-.856.486v-.387Zm-16.34.572a.659.659,0,0,1,.493.167c.261.265.251.822.235,1.665l0,.2c0,.191-.006.4-.006.621h.72V32.74H12.8a1.236,1.236,0,0,0-1.292-1.29,1.256,1.256,0,0,0-1.125.571,1.166,1.166,0,0,0-1.072-.571,1.113,1.113,0,0,0-.931.474v-.387H7.66V34.76h.721c0-.116,0-.222-.006-.334v-.16l0-.137,0-.126c-.02-.825-.034-1.422.243-1.7a.742.742,0,0,1,.559-.19.654.654,0,0,1,.49.167c.262.267.252.824.237,1.669l0,.2c0,.191-.006.4-.006.613h.694c0-.118,0-.228-.006-.345v-.135l0-.132,0-.118c-.02-.836-.034-1.44.25-1.732A.731.731,0,0,1,11.376,32.108Zm6.4-27.768a12.154,12.154,0,1,0,6.738,22.278,13.1,13.1,0,0,1,0-20.248,12.119,12.119,0,0,0-6.72-2.03h-.018Zm15.04-.009A12.189,12.189,0,0,0,26.09,6.36,13.118,13.118,0,0,1,30.877,16.6a12.865,12.865,0,0,1-4.787,10,12.29,12.29,0,0,0,6.722,2.03h.017a12.154,12.154,0,1,0-.017-24.307ZM25.3,6.931h0a12.12,12.12,0,0,0-4.636,9.612A11.994,11.994,0,0,0,25.3,26.038a12.164,12.164,0,0,0,0-19.107Zm19.19,16.742h0v.352h.1v-.475h-.123l-.141.308-.14-.308h-.123v.475h.07v-.361l.141.308h.1l.119-.3Zm-3.054,10.5a1.029,1.029,0,0,1,0-2.057.985.985,0,0,1,.985,1.028A.964.964,0,0,1,41.436,34.173Zm-6.526,0a1.031,1.031,0,0,1,0-2.057.973.973,0,0,1,.984,1.028A.953.953,0,0,1,34.911,34.173Zm-19.793,0a1.029,1.029,0,0,1,0-2.057.973.973,0,0,1,.958,1.028A.952.952,0,0,1,15.118,34.173Zm11.165-1.318H24.605a.818.818,0,0,1,.835-.765.808.808,0,0,1,.842.763Z" transform="translate(0 0)" fill="#6c57a2"/>
  </g>
</svg>
