<svg id="组件_53_1" data-name="组件 53 – 1" xmlns="http://www.w3.org/2000/svg" width="83" height="83" viewBox="0 0 83 83">
  <circle id="Oval_Copy" data-name="Oval Copy" cx="41.5" cy="41.5" r="41.5" fill="#f1f2f6"/>
  <g id="cc-paypal" transform="translate(17.166 21.542)">
    <path id="Shape" d="M46.384,39.355H4.217A4.222,4.222,0,0,1,0,35.138V4.217A4.222,4.222,0,0,1,4.217,0H46.384A4.221,4.221,0,0,1,50.6,4.217V35.138A4.221,4.221,0,0,1,46.384,39.355Zm-26.3-22.463a.316.316,0,0,0-.281.308c0,.064.682,2.04,1.254,3.687.368,1.058.566,1.637.609,1.768l-.067.094a16.218,16.218,0,0,0-1.735,2.681.283.283,0,0,0,.282.282H21.83a.522.522,0,0,0,.395-.229l5.6-8.135a.182.182,0,0,0,.043-.149.312.312,0,0,0-.281-.308H25.9a.5.5,0,0,0-.395.22l-2.329,3.426-.965-3.294a.534.534,0,0,0-.484-.352Zm19.406-.165a3.669,3.669,0,0,0-2.705,1.2,4.115,4.115,0,0,0-1.09,2.766,2.63,2.63,0,0,0,2.784,2.83A3.321,3.321,0,0,0,40.8,22.48l-.006.032,0,.015a3.337,3.337,0,0,0-.079.5c0,.223.1.351.281.351h1.52c.245,0,.442-.26.484-.5l.9-5.648a.3.3,0,0,0-.071-.241.278.278,0,0,0-.209-.1h-1.67c-.305,0-.346.408-.37.651l-.008.068A2.221,2.221,0,0,0,39.487,16.727Zm-24.94,0a3.937,3.937,0,0,0-3.795,3.97,2.631,2.631,0,0,0,2.786,2.83,3.419,3.419,0,0,0,2.327-1.046,2.478,2.478,0,0,0-.087.545c0,.223.1.351.281.351h1.51c.244,0,.44-.26.483-.5l.9-5.648a.311.311,0,0,0-.071-.241.279.279,0,0,0-.211-.1H17c-.32,0-.351.444-.367.683l0,.036A2.264,2.264,0,0,0,14.547,16.727ZM4.709,13.651a.465.465,0,0,0-.457.413l-1.441,8.97a.314.314,0,0,0,.073.25.265.265,0,0,0,.208.1h1.67a.561.561,0,0,0,.483-.5l.395-2.336c.042-.307.312-.449.847-.449.132,0,.285.007.452.021l.047,0,.044,0,.027,0c.071,0,.123.008.164.008a3.71,3.71,0,0,0,4.05-4.024c0-2.14-1.91-2.459-3.048-2.459Zm41.174,0a.29.29,0,0,0-.281.237l-1.424,9.137-.026.044a.323.323,0,0,0,.093.219.306.306,0,0,0,.214.088h1.45a.546.546,0,0,0,.457-.5l1.422-8.889v-.026a.3.3,0,0,0-.281-.308Zm-16.2,0a.482.482,0,0,0-.483.413l-1.422,8.961a.343.343,0,0,0,.085.258.263.263,0,0,0,.2.093h1.8a.375.375,0,0,0,.352-.281l.395-2.547c.042-.307.312-.449.847-.449.163,0,.32.011.452.021l.047,0,.044,0,.027,0c.062,0,.116.007.164.007a3.7,3.7,0,0,0,4.032-4.024c0-2.14-1.91-2.459-3.048-2.459ZM39.4,21.759a1.287,1.287,0,0,1-1.424-1.318,1.9,1.9,0,0,1,1.907-1.932,1.475,1.475,0,0,1,1.064.4,1.314,1.314,0,0,1,.36.963A1.877,1.877,0,0,1,39.4,21.759Zm-24.966,0a1.265,1.265,0,0,1-1.406-1.318,1.9,1.9,0,0,1,1.907-1.932,1.323,1.323,0,0,1,1.431,1.362A1.89,1.89,0,0,1,14.433,21.759ZM6,18.193H6l.376-2.345a.275.275,0,0,1,.282-.237h.413c.65,0,1.134.061,1.386.36a1.124,1.124,0,0,1,.15.949c-.181,1.152-1,1.248-1.888,1.248Zm24.974,0h0l.369-2.344a.259.259,0,0,1,.281-.237h.4c.832,0,1.58.075,1.589.975,0,1.313-.773,1.582-1.932,1.582Z" transform="translate(0 0)" fill="#6c57a2"/>
  </g>
</svg>
