<svg id="组件_52_1" data-name="组件 52 – 1" xmlns="http://www.w3.org/2000/svg" width="83" height="83" viewBox="0 0 83 83">
  <circle id="Oval" cx="41.5" cy="41.5" r="41.5" fill="#f1f2f6"/>
  <g id="cc-visa" transform="translate(16.833 22.075)">
    <path id="Shape" d="M46.751,39H4.25A4.22,4.22,0,0,1,0,34.821V4.179A4.22,4.22,0,0,1,4.25,0h42.5A4.219,4.219,0,0,1,51,4.179V34.821A4.219,4.219,0,0,1,46.751,39ZM24.58,22.5l-.5,3.037a11.029,11.029,0,0,0,3.966.724h.023c3.725,0,6.149-1.811,6.175-4.614.018-1.542-.93-2.712-2.984-3.682-1.251-.619-2.01-1.041-2.01-1.671.018-.581.658-1.167,2.046-1.167l.153,0a6.18,6.18,0,0,1,2.494.516l.32.147.487-2.926a8.922,8.922,0,0,0-3.187-.573c-3.517,0-5.985,1.84-6,4.474-.026,1.924,1.766,3.018,3.117,3.673s1.842,1.1,1.842,1.68c-.018.91-1.119,1.324-2.134,1.324a7.151,7.151,0,0,1-3.337-.724Zm13.883,1.54h4.569c.1.473.422,2.012.425,2.028h3.294L43.882,12.535H41.128a1.74,1.74,0,0,0-1.859,1.124l-5.286,12.4h3.736c0-.006.1-.286.234-.641.187-.512.431-1.176.509-1.385Zm-17.93-11.5L18.311,26.063h3.55l2.232-13.528Zm-17.638,0h0l-.061.271A14.182,14.182,0,0,1,6.57,14.294L9.74,26.047H13.5l5.6-13.511H15.335l-3.479,9.229-.381-1.873-1.239-6.216c-.176-.746-.673-1.1-1.611-1.14H2.895Zm39.552,8.732H39.49c.069-.182.185-.491.308-.818l.259-.69.009-.026.017-.047.158-.422.095-.254,0-.011.2-.545.23-.615.069-.185c.04-.108.064-.171.066-.175s.02-.064.092-.259l.054-.146,0-.009.323-.878.246,1.161s0,.02.009.047l0,.011.009.047.017.083c.368,1.764.628,3,.784,3.729Z" transform="translate(0.166 -0.076)" fill="#6c57a2"/>
  </g>
</svg>
