<svg xmlns="http://www.w3.org/2000/svg" width="85.373" height="85.373" viewBox="0 0 85.373 85.373">
  <g id="Icons_15px_Black_Heart_deactive_Copy" data-name="Icons 15px / Black / Heart deactive Copy" transform="translate(0.001 0)">
    <path id="Icons_15px_Black_Heart_deactive_Copy_background" data-name="Icons 15px / Black / Heart deactive Copy background" d="M0,0H85.373V85.373H0Z" transform="translate(-0.001 0)" fill="rgba(0,0,0,0)"/>
    <path id="_8_Like" data-name="8 Like" d="M33.943,5.261,31.859,7.393,29.788,5.261a17.1,17.1,0,0,0-24.68,0h0a18.381,18.381,0,0,0-.651,24.717A189.264,189.264,0,0,0,29.536,53.82a3.762,3.762,0,0,0,4.66,0A188.444,188.444,0,0,0,59.274,29.978a18.381,18.381,0,0,0-.651-24.717h0A17.1,17.1,0,0,0,33.943,5.261Z" transform="translate(11.089 14.523)" fill="none" stroke="#000" stroke-miterlimit="10" stroke-width="1"/>
  </g>
</svg>
