<svg xmlns="http://www.w3.org/2000/svg" width="50.599" height="50.599" viewBox="0 0 50.599 50.599">
  <g id="_Icons_Check_Copy" data-name="_Icons / Check Copy" transform="translate(0 0)">
    <path id="_Icons_Check_Copy_background" data-name="_Icons / Check Copy background" d="M0,0H50.6V50.6H0Z" transform="translate(0 0)" fill="rgba(0,0,0,0)"/>
    <path id="_22_Check" data-name="22 Check" d="M18.071,36.142A18.072,18.072,0,1,1,36.142,18.071,18.092,18.092,0,0,1,18.071,36.142ZM11,15.895a1.5,1.5,0,0,0-1.065.441,1.514,1.514,0,0,0-.08,2.044l5.271,5.271a1.5,1.5,0,0,0,2.122,0l9.036-9.036a1.512,1.512,0,0,0-.08-2.044,1.505,1.505,0,0,0-2.044-.078l-7.973,7.966-4.209-4.2A1.51,1.51,0,0,0,11,15.895Z" transform="translate(7.229 7.229)"/>
  </g>
</svg>
